<svg xmlns="http://www.w3.org/2000/svg" xmlns:xlink="http://www.w3.org/1999/xlink" width="232" height="232" viewBox="0 0 232 232">
    <defs>
        <circle id="a" cx="116" cy="116" r="116"/>
        <path id="c" d="M13.245 21.436c-2.421 1.42.988 6.285-.366 7.345-1.355 1.06-2.854-2.934-7.59-3.198-4.735-.264-6.773 5.297-4.022 9.554 2.751 4.257 10.007 1.771 9.741 4.92-.265 3.148-6.356 42.084-9.923 56.996-2.826 11.816 7.84 33.356 16.002 33.356 8.225 0 14.118-20.942 11.786-30.906-4.133-17.66-6.854-40.812-3.743-43.846 3.113-3.033 9.857.994 13.335-4.651 1.157-1.878.57-7.816-.875-15.008-.47-2.34 7.085-4.431 4.681-5.377-4.257-1.675-8.719-8.757-9.66-13.91-1.59-8.707-5.37-15.406-6.887-16.502 0 0-5.038 16.863-12.479 21.227"/>
        <path id="e" d="M.717.293c-1.264.14 1.967 2.67 2.74 4.147.773 1.477 2.038 4.218 2.74 4.85.703.633-4.367 38.467-4.367 38.467h31.298s-2.704-10.95-5.796-16.877c-3.091-5.927-11.5-17.116-11.5-17.116s4.338-.517 6.254-2.837c1.914-2.32-3.56-8.835-5.308-8.826-1.748.01-7.763 1.443-10.58.793 0 0-4.007-2.606-5.38-2.606a.928.928 0 0 0-.1.005"/>
        <path id="g" d="M.271 46.84c0 25.669 20.8 46.478 46.459 46.478 25.658 0 46.458-20.81 46.458-46.479S72.388.362 46.73.362C21.072.362.27 21.17.27 46.839"/>
        <path id="i" d="M1.004 1.373c-.825.876 5.368 1.273 4.541 1.42-.807.145-4.28.493-5.132 1.915-.666 1.111 5.607.59 6.444.417.82-.169-3.327 1.218-4.357 2.604-.67.9 3.588.746 5.395.096C8.996 7.429 5.437 9.462 5.2 10.36c-.17.647 3.19-.184 3.19-.184l.66 4.41c4.214-1.059 5.078-5.94 5.352-7.09.273-1.148-1.695-.82-1.424-1.586.405-1.143-1.749-1.093-1.584-1.968.164-.876-2.131-1.094-1.748-1.805.382-.71 0-1.257-.681-1.679-.32-.199-1.25-.307-2.376-.307-2.063 0-4.78.366-5.584 1.222"/>
    </defs>
    <g fill="none" fill-rule="evenodd">
        <mask id="b" fill="#fff">
            <use xlink:href="#a"/>
        </mask>
        <use fill="#F5F8FC" xlink:href="#a"/>
        <g mask="url(#b)">
            <path stroke="#D8D8D8" stroke-width=".5" d="M-32.573 140.465s20.388-4.947 52.021 8.394c31.634 13.342 49.337 54.91 89.673 71.197 40.335 16.286 79.386-46.768 149.54-31.087"/>
            <path fill="#D5DFE8" d="M44.495 134.685c2.808 2.11 7.09 6.754 4.99 10.014-2.1 3.26-2.509 6.359-9.6 4.937-4.083-.818-12.15-9.089-9.719-12.69 2.431-3.602 5.821-8.654 14.33-2.26M29.107 88.111c1.868-3.297 5.433-6.375 9.41-4.888 3.98 1.486 4.723 2.205 5.555 4.923.833 2.718 1.874 3.043.526 6.321-1.348 3.278-1.048 4.507-3.142 6.577-2.093 2.07-7.29 4.988-11.055 2.253-3.765-2.735-5.326-8.073-1.294-15.186M13.822 208.631c2.778-1.175 5.51-.926 7.457-1.06 1.946-.135 7.156 3.812 10.297 11.914 3.142 8.102-9.395 9.776-13.163 6.842-3.769-2.935-7.228-5.088-7.657-9.862-.43-4.775.817-6.883 3.066-7.834"/>
            <g fill="#FFCFDF">
                <path d="M151.282 155.442c-1.622 8.787-6.38 18.102-10.702 17.925-4.322-.176-7.931-8.852-7.51-17.377.422-8.526 4.372-14.504 4.894-14.74 1.228-.557 6.695-4.817 8.716-4.406 3.836.78 6.224 9.811 4.602 18.598m.64-35.198c-14.037-3.693-26 9.036-31.922 24.197-5.923 15.161-3.908 43.334 13.608 44.956 9.777.906 23.49-5.21 32.958-26.494 9.467-21.283-.606-38.966-14.644-42.659M141.07 111.51c-1.65 4.45-8.441 2.148-11.48 2.16-3.037.011-10.928.891-8.334-6.046 2.594-6.938 8.106-28.985 9.692-32.061 1.586-3.076-9.504-.44-12.802-5.434-3.298-4.993 1.196-8.239 4.965-8.33 3.768-.09 9.342-7.19 12.277-7.651 2.935-.46 10.363.227 11.6 1.075 1.238.846 2.867-1.127 6.087.014 3.221 1.14 1.532 8.455-.413 13.84-1.944 5.387-10.435 39.317-11.591 42.433M204.711 95.588c.705-5.44 1.056-11.41-2.573-11.915-3.629-.506-7.71 1.76-9.87 2.692-2.16.932-6.508-.833-8.556 1.435-2.048 2.269-4.864 7.423-8.664 8.764-3.8 1.34-5.362 11.01-1.07 11.577 4.29.567 11.226-.242 11.226-.242s-7.753 27.983-8.156 35.918c-.178 3.507 5.23 4.035 10.13 4.462 4.902.428 8.567.793 9.41-3.578.845-4.372 7.331-43.005 8.123-49.113"/>
            </g>
            <path fill="#242E3E" d="M-3.032 161.53c-10.14-3.656-5.617-18.627-12.051-21.355-6.434-2.729-10.518-5.19-13.527-10.41-3.01-5.22-2.182-88.343-2.182-88.343C1.012 25.253 25.783 17.169 43.522 17.169c.483 0 2.57 14.552 6.262 43.657 0 0 .703 9.316 5.002 18.348 4.299 9.03-.138 31.232-10.386 42.71-10.248 11.477-7.884 25.454-23.574 34.7-4.418 2.603-13.719 8.6-23.858 4.945z"/>
            <path stroke="#242E3E" stroke-width=".5" d="M20.826 156.584c-4.418 2.603-13.719 8.6-23.858 4.945-10.14-3.655-5.617-18.626-12.051-21.354-6.434-2.729-10.518-5.19-13.527-10.41-3.01-5.22-1.338-85.591-1.338-85.591l77.096-.8c.467 2.898 3.339 26.768 7.638 35.8 4.299 9.03-.138 31.232-10.386 42.71-10.248 11.477-7.884 25.454-23.574 34.7z"/>
            <path fill="#A10244" d="M-26.111 233.982l111.778 24.8s-4.08-49.997-8.479-54.399c-4.4-4.4-37.835-12.323-49.714-12.764-11.878-.44-53.585 3.962-53.585 3.962v38.401z"/>
            <path stroke="#242E3E" stroke-width=".5" d="M-26.111 233.982l111.778 26.4s-4.08-51.597-8.479-55.999c-4.4-4.4-37.835-12.323-49.714-12.764-11.878-.44-53.585 3.962-53.585 3.962v38.401z"/>
            <path fill="#FFF" d="M27.732 224.945c8.225 0 14.118-20.942 11.786-30.907-4.133-17.659-6.855-40.81-3.743-43.844 3.113-3.034 9.857.993 13.335-4.652 1.157-1.878.57-7.816-.874-15.008-.47-2.34 7.084-4.43 4.68-5.377-4.257-1.676-8.719-8.757-9.66-13.91-1.59-8.707-5.37-15.406-6.887-16.502 0 0-5.037 16.863-12.479 21.227-2.42 1.42.988 6.286-.366 7.345-1.355 1.06-2.854-2.934-7.59-3.198-4.734-.264-6.773 5.297-4.022 9.554 2.751 4.257 10.007 1.771 9.742 4.92-.266 3.149-6.357 42.084-9.924 56.996-2.826 11.816 7.84 33.356 16.002 33.356"/>
            <g transform="translate(10.645 94.536)">
                <mask id="d" fill="#fff">
                    <use xlink:href="#c"/>
                </mask>
                <path fill="#FFCFDF" d="M14.705 136.624c11.125 1.959 25.404-20.055 20.886-33.75-5.683-17.223-6.855-40.811-3.743-43.845 3.113-3.034 9.858.994 13.335-4.651 1.157-1.879.57-7.817-.875-15.009-.469-2.34 7.085-4.43 4.681-5.377-4.257-1.676-8.719-8.757-9.66-13.91-1.59-8.707-5.37-15.406-6.887-16.502 0 0-5.038 16.864-12.479 21.227-2.421 1.42-1.971 15.473-2.237 18.621-.265 3.15-7.126 51.2-16.64 53.625-8.949 2.28-9.702 35.465 13.619 39.571" mask="url(#d)"/>
            </g>
            <g>
                <path stroke="#242E3E" stroke-width=".5" d="M27.732 224.945c8.225 0 14.118-20.942 11.786-30.907-4.133-17.659-6.855-40.81-3.743-43.844 3.113-3.034 9.857.993 13.335-4.652 1.157-1.878.57-7.816-.874-15.008-.47-2.34 7.084-4.43 4.68-5.377-4.257-1.676-8.719-8.757-9.66-13.91-1.59-8.707-5.37-15.406-6.887-16.502 0 0-5.037 16.863-12.479 21.227-2.42 1.42.988 6.286-.366 7.345-1.355 1.06-2.854-2.934-7.59-3.198-4.734-.264-6.773 5.297-4.022 9.554 2.751 4.257 10.007 1.771 9.742 4.92-.266 3.149-6.357 42.084-9.924 56.996-2.826 11.816 7.84 33.356 16.002 33.356z"/>
                <path fill="#FBFCFE" d="M92.497 189.119s-4.215-2.741-5.48-2.6c-1.265.14 1.967 2.67 2.74 4.146.773 1.476 2.038 4.217 2.74 4.85.703.633-4.367 38.467-4.367 38.467h31.298s-2.704-10.95-5.796-16.877c-3.09-5.927-11.5-17.116-11.5-17.116s4.338-.517 6.253-2.837c1.915-2.32-3.56-8.835-5.307-8.826-1.749.01-7.764 1.443-10.58.793"/>
            </g>
            <g transform="translate(86.3 186.225)">
                <mask id="f" fill="#fff">
                    <use xlink:href="#e"/>
                </mask>
                <path fill="#FFCFDF" d="M6.143 4.191s-4.215-2.74-5.48-2.6c-1.265.14 1.967 2.67 2.74 4.147.773 1.476 2.038 4.217 2.74 4.85.703.632-4.367 38.467-4.367 38.467h31.298s-2.704-10.95-5.796-16.877c-3.09-5.928-11.5-17.117-11.5-17.117s4.338-.517 6.253-2.837c1.915-2.32-3.559-8.834-5.307-8.825-1.748.009-7.764 1.442-10.58.792" mask="url(#f)"/>
            </g>
            <g>
                <path stroke="#242E3E" stroke-width=".5" d="M92.497 189.119s-4.215-2.741-5.48-2.6c-1.265.14 1.967 2.67 2.74 4.146.773 1.476 2.038 4.217 2.74 4.85.703.633-4.367 38.467-4.367 38.467h31.298s-2.704-10.95-5.796-16.877c-3.09-5.927-11.5-17.116-11.5-17.116s4.338-.517 6.253-2.837c1.915-2.32-3.56-8.835-5.307-8.826-1.749.01-7.764 1.443-10.58.793z"/>
                <path fill="#242E3E" d="M90.528 160.285c-5.562 1.081 2.59 65.223 13.255 62.556 8.888-2.224-5.256-64.112-13.255-62.556"/>
                <path stroke="#242E3E" stroke-width=".5" d="M90.528 160.285c-5.562 1.081 2.59 65.223 13.255 62.556 8.888-2.224-5.256-64.112-13.255-62.556z"/>
                <path fill="#D8E0EB" d="M132.798 119.75c0 25.67-20.8 46.479-46.458 46.479-25.658 0-46.458-20.81-46.458-46.478 0-25.67 20.8-46.478 46.458-46.478 25.658 0 46.458 20.808 46.458 46.478"/>
            </g>
            <g transform="translate(39.61 72.911)">
                <mask id="h" fill="#fff">
                    <use xlink:href="#g"/>
                </mask>
                <path fill="#E3E9F2" d="M97.963 48.174c0 24.981-20.242 45.232-45.212 45.232-24.97 0-45.213-20.251-45.213-45.232 0-24.98 20.243-45.231 45.213-45.231 24.97 0 45.212 20.25 45.212 45.231" mask="url(#h)"/>
            </g>
            <g>
                <path stroke="#242E3E" stroke-width="3.456" d="M132.798 119.75c0 25.67-20.8 46.479-46.458 46.479-25.658 0-46.458-20.81-46.458-46.478 0-25.67 20.8-46.478 46.458-46.478 25.658 0 46.458 20.808 46.458 46.478z"/>
                <path fill="#FBFCFE" d="M49.784 121.977s10.05-21.493 39.157-20.106c29.108 1.386 36.731 24.613 36.731 24.613s-8.752 16.118-38.206 16.118-37.682-20.625-37.682-20.625"/>
                <path stroke="#242E3E" stroke-width=".5" d="M49.784 121.977s10.05-21.493 39.157-20.106c29.108 1.386 36.731 24.613 36.731 24.613s-8.752 16.118-38.206 16.118-37.682-20.625-37.682-20.625z"/>
                <path fill="#FFCFDF" d="M106.181 122.844c0 8.711-7.059 15.773-15.767 15.773-8.707 0-15.766-7.062-15.766-15.773 0-8.712 7.059-15.773 15.766-15.773 8.708 0 15.767 7.061 15.767 15.773"/>
                <path stroke="#242E3E" stroke-width=".5" d="M106.181 122.844c0 8.711-7.059 15.773-15.767 15.773-8.707 0-15.766-7.062-15.766-15.773 0-8.712 7.059-15.773 15.766-15.773 8.708 0 15.767 7.061 15.767 15.773z"/>
                <path fill="#242E3E" d="M98.08 122.629a7.135 7.135 0 0 1-7.135 7.136 7.135 7.135 0 0 1-7.133-7.136 7.135 7.135 0 0 1 7.133-7.137 7.135 7.135 0 0 1 7.134 7.137"/>
                <path stroke="#242E3E" stroke-width=".5" d="M98.08 122.629a7.135 7.135 0 0 1-7.135 7.136 7.135 7.135 0 0 1-7.133-7.136 7.135 7.135 0 0 1 7.133-7.137 7.135 7.135 0 0 1 7.134 7.137z"/>
                <path fill="#FBFCFE" d="M97.247 185.868c1.244-1.323 7.053-1.477 7.96-.915.68.422 1.063.968.68 1.68-.382.71 1.913.929 1.748 1.804-.163.875 1.99.825 1.585 1.968-.271.766 1.697.438 1.423 1.587-.273 1.148-1.137 6.03-5.352 7.089l-.66-4.41s-3.359.831-3.188.185c.236-.9 3.797-2.932 2.695-2.536-1.808.65-6.064.804-5.395-.097 1.03-1.385 5.176-2.772 4.357-2.602-.837.172-7.11.693-6.444-.418.853-1.422 4.325-1.77 5.132-1.914.827-.148-5.366-.545-4.541-1.42"/>
            </g>
            <g transform="translate(96.243 184.495)">
                <mask id="j" fill="#fff">
                    <use xlink:href="#i"/>
                </mask>
                <path fill="#FFCFDF" d="M8.388 10.176c1.456-.461 4.089-1.356 4.089-1.008 0 .348-.775 3.18-4.089 3.976-3.313.795-1.681-2.432 0-2.968" mask="url(#j)"/>
            </g>
            <path stroke="#242E3E" stroke-width=".5" d="M97.247 185.868c1.244-1.323 7.053-1.477 7.96-.915.68.422 1.063.968.68 1.68-.382.71 1.913.929 1.748 1.804-.163.875 1.99.825 1.585 1.968-.271.766 1.697.438 1.423 1.587-.273 1.148-1.137 6.03-5.352 7.089l-.66-4.41s-3.359.831-3.188.185c.236-.9 3.797-2.932 2.695-2.536-1.808.65-6.064.804-5.395-.097 1.03-1.385 5.176-2.772 4.357-2.602-.837.172-7.11.693-6.444-.418.853-1.422 4.325-1.77 5.132-1.914.827-.148-5.366-.545-4.541-1.42z"/>
        </g>
    </g>
</svg>
