<svg width="734" height="868" xmlns="http://www.w3.org/2000/svg" xmlns:xlink="http://www.w3.org/1999/xlink">
    <defs>
        <path d="M251.76 198.596s-115.537 23.998-148.23 63.624c-65.526 79.422-112.932-44.552-6.79-147.966 62.282-60.681 182.895-71.307 210.745 10.973 6.635 19.603 4.1 50.15-55.726 73.37" id="a"/>
        <path id="c" d="M0 164.998h173.297V0H0z"/>
        <path d="M290.347 12.226c-2.143 4.53-10.823 5.533-10.823 8.14 0 6.233 3.139 8.476 1.353 10.48-1.786 2.002-3.572-4.007-5.135-6.678-1.563-2.672-8.037-8.46-8.037 1.335 0 9.795 10.492 9.795 12.502 12.91 2.01 3.117 7.37 57.629 1.837 61.057-5.532 3.428-33.699 3.092-65.89 18.639-32.19 15.546-61.363 95.788-77.961 97.794-16.599 2.006-36.727 31.562-48.51 58.973-22.68 52.768-35.022 101.927-35.022 101.927s-9.297-3.206-19.467-5.502c-10.169-2.295-16.432-3.475-19.313-2.356-2.881 1.118 10.613 4.252 13.5 5.775 1.38.728-2.938.02-8.172-.69-5.714-.774-12.521-1.547-14.198-.452-3.212 2.098 11.593 4.955 16.67 7.497 2.521 1.263-2.323.071-8.104-1.12-5.849-1.206-12.656-2.412-13.765-1.076-2.206 2.657 13.452 6.043 20.32 8.266 3.247 1.05-.792.282-6.265-.487-6.104-.858-13.993-1.715-15.55-.05-2.956 3.158 15.202 3.889 37.178 12.751 7.807 3.15-5.576 2.065-10.713 3.445s-14.336 8.77-3.033 7.332c11.303-1.438 13.336-1.334 20.597-1.327 7.259.009 9.513-6.812 12.843-8.193 40.296-16.724 72.49-46.638 100.317-69.975 24.072-20.19 38.637-37.755 38.637-37.755 5.132 40.564-19.047 57.1-27.037 76.62-7.112 17.371-1.555 25.637-1.555 25.637h248.347s-15.333-61.598-13.098-79.142c2.65-20.803 16.347-46.62 16.347-46.62 64.282 21.572 130.145 27.358 138.69 20.422 8.545-6.934.728-48.541-17.046-88.472C505.481 122 452.217 68.745 452.217 68.745l-3.736 1.831c3.736-1.831 9.6-12.821 11.156-15.356 1.556-2.535 12.192-17.046 8.61-16.03-3.584 1.015-13.327 11.144-11.596 8.504 1.728-2.642 9.595-17.918 6.302-15.556-3.293 2.362-13.179 15.245-12.265 12.802.913-2.442 8.958-19.358 5.524-16.923-3.495 2.479-12.373 16.622-11.333 14.056 1.04-2.567 4.64-17.103 2.452-16.053-2.188 1.052-6.6 11.751-7.604 14.23-1.004 2.477-6.16 10.826-8.787 6.358-1.278-2.172-9.717-6.392-11.456-4.143-1.74 2.249 2.221 1.582 4.104 4.331 1.882 2.75.23 2.881 1.104 8.61.875 5.73 4.247 7.088 3.823 10.105-1.595 11.372 21.514 110.29 21.514 110.29s-49.797-60.74-59.088-63.313c-9.294-2.574-73.005-12.637-75.684-13.527-2.68-.891-18.058-48.656-14.933-46.207 3.126 2.448 6.003 5.694 8.905 4.581 2.666-1.023 3.596-12.74.616-25.167v-.002c-.399-1.75 5.545-3.677 3.245-5.206-3.254-2.163-7.976-8.991-11.43-14.264l-.01-.014c-2.55-4.476-5.416-8.944-8.44-12.556-.071-.085-.132-.126-.183-.126-.645 0 .076 6.395-2.68 12.226" id="e"/>
        <path d="M290.347 12.226c-2.143 4.53-10.823 5.533-10.823 8.14 0 6.233 3.139 8.476 1.353 10.48-1.786 2.002-3.572-4.007-5.135-6.678-1.563-2.672-8.037-8.46-8.037 1.335 0 9.795 10.492 9.795 12.502 12.91 2.01 3.117 7.37 57.629 1.837 61.057-5.532 3.428-33.699 3.092-65.89 18.639-32.19 15.546-61.363 95.788-77.961 97.794-16.599 2.006-36.727 31.562-48.51 58.973-22.68 52.768-35.022 101.927-35.022 101.927s-9.297-3.206-19.467-5.502c-10.169-2.295-16.432-3.475-19.313-2.356-2.881 1.118 10.613 4.252 13.5 5.775 1.38.728-2.938.02-8.172-.69-5.714-.774-12.521-1.547-14.198-.452-3.212 2.098 11.593 4.955 16.67 7.497 2.521 1.263-2.323.071-8.104-1.12-5.849-1.206-12.656-2.412-13.765-1.076-2.206 2.657 13.452 6.043 20.32 8.266 3.247 1.05-.792.282-6.265-.487-6.104-.858-13.993-1.715-15.55-.05-2.956 3.158 15.202 3.889 37.178 12.751 7.807 3.15-5.576 2.065-10.713 3.445s-14.336 8.77-3.033 7.332c11.303-1.438 13.336-1.334 20.597-1.327 7.259.009 9.513-6.812 12.843-8.193 40.296-16.724 72.49-46.638 100.317-69.975 24.072-20.19 38.637-37.755 38.637-37.755 5.132 40.564-19.047 57.1-27.037 76.62-7.112 17.371-1.555 25.637-1.555 25.637h248.347s-15.333-61.598-13.098-79.142c2.65-20.803 16.347-46.62 16.347-46.62 64.282 21.572 130.145 27.358 138.69 20.422 8.545-6.934.728-48.541-17.046-88.472C505.481 122 452.217 68.745 452.217 68.745l-3.736 1.831c3.736-1.831 9.6-12.821 11.156-15.356 1.556-2.535 12.192-17.046 8.61-16.03-3.584 1.015-13.327 11.144-11.596 8.504 1.728-2.642 9.595-17.918 6.302-15.556-3.293 2.362-13.179 15.245-12.265 12.802.913-2.442 8.958-19.358 5.524-16.923-3.495 2.479-12.373 16.622-11.333 14.056 1.04-2.567 4.64-17.103 2.452-16.053-2.188 1.052-6.6 11.751-7.604 14.23-1.004 2.477-6.16 10.826-8.787 6.358-1.278-2.172-9.717-6.392-11.456-4.143-1.74 2.249 2.221 1.582 4.104 4.331 1.882 2.75.23 2.881 1.104 8.61.875 5.73 4.247 7.088 3.823 10.105-1.595 11.372 21.514 110.29 21.514 110.29s-49.797-60.74-59.088-63.313c-9.294-2.574-73.005-12.637-75.684-13.527-2.68-.891-18.058-48.656-14.933-46.207 3.126 2.448 6.003 5.694 8.905 4.581 2.666-1.023 3.596-12.74.616-25.167v-.002c-.399-1.75 5.545-3.677 3.245-5.206-3.254-2.163-7.976-8.991-11.43-14.264l-.01-.014c-2.55-4.476-5.416-8.944-8.44-12.556-.071-.085-.132-.126-.183-.126-.645 0 .076 6.395-2.68 12.226" id="g"/>
        <path d="M279.524 20.367c0 6.232 3.139 8.475 1.353 10.478-1.786 2.003-3.572-4.006-5.135-6.677-1.563-2.672-8.037-8.46-8.037 1.335 0 9.795 10.492 9.795 12.502 12.91 2.01 3.117 7.37 57.629 1.837 61.057-5.532 3.428-33.699 3.092-65.89 18.639-32.19 15.546-61.363 95.788-77.961 97.794-16.599 2.006-36.727 31.562-48.51 58.973-22.68 52.768-35.022 101.927-35.022 101.927s-9.297-3.206-19.467-5.502c-10.169-2.295-16.432-3.475-19.313-2.356-2.881 1.118 10.613 4.252 13.5 5.775 1.38.728-2.938.02-8.172-.69-5.714-.774-12.521-1.547-14.198-.452-3.212 2.098 11.593 4.955 16.67 7.497 2.521 1.263-2.323.071-8.104-1.12-5.849-1.206-12.656-2.412-13.765-1.076-2.206 2.657 13.452 6.043 20.32 8.266 3.247 1.05-.792.282-6.265-.487-6.104-.858-13.993-1.715-15.55-.05-2.956 3.158 15.202 3.889 37.178 12.751 7.807 3.15-5.576 2.065-10.713 3.445s-14.336 8.77-3.033 7.332c11.303-1.438 13.336-1.334 20.597-1.327 7.259.009 9.513-6.812 12.843-8.193 40.296-16.724 72.49-46.638 100.317-69.975 24.072-20.19 38.637-37.755 38.637-37.755 5.132 40.564 58.62 101.066 58.62 101.066h156.508s-14.406-62.43-12.172-79.975c2.651-20.803 18.439-52.17 18.439-49.29l1.609 4.694c64.282 21.572 130.145 27.358 138.69 20.422 8.545-6.934.728-48.541-17.046-88.472C505.481 122 452.217 68.745 452.217 68.745l-3.736 1.831c3.736-1.831 9.6-12.821 11.156-15.356 1.556-2.535 12.192-17.046 8.61-16.03-3.584 1.015-13.327 11.144-11.596 8.504 1.728-2.642 9.595-17.918 6.302-15.556-3.293 2.362-13.179 15.245-12.265 12.802.913-2.442 8.958-19.358 5.524-16.923-3.495 2.479-12.373 16.622-11.333 14.056 1.04-2.567 4.64-17.103 2.452-16.053-2.188 1.052-6.6 11.751-7.604 14.23-1.004 2.477-6.16 10.826-8.787 6.358-1.278-2.172-9.717-6.392-11.456-4.143-1.74 2.249 2.221 1.582 4.104 4.331 1.882 2.75.23 2.881 1.104 8.61.875 5.73 4.247 7.088 3.823 10.105-1.595 11.372 21.514 110.29 21.514 110.29s-49.797-60.74-59.088-63.313c-9.294-2.574-73.005-12.637-75.684-13.527-2.68-.891-18.058-48.656-14.933-46.207 3.126 2.448 6.003 5.694 8.905 4.581 2.666-1.023 3.596-12.74.616-25.167-.399-1.752 5.545-3.679 3.245-5.208-3.254-2.163-7.976-8.991-11.43-14.264l-.01-.014c-2.55-4.476-5.416-8.944-8.44-12.556-.071-.085-.132-.126-.183-.126-.645 0 .076 6.395-2.68 12.226-2.143 4.53-10.823 5.533-10.823 8.14z" id="i"/>
        <path d="M279.524 20.367c0 6.232 3.139 8.475 1.353 10.478-1.786 2.003-3.572-4.006-5.135-6.677-1.563-2.672-8.037-8.46-8.037 1.335 0 9.795 10.492 9.795 12.502 12.91 2.01 3.117 7.37 57.629 1.837 61.057-5.532 3.428-33.699 3.092-65.89 18.639-32.19 15.546-61.363 95.788-77.961 97.794-16.599 2.006-36.727 31.562-48.51 58.973-22.68 52.768-35.022 101.927-35.022 101.927s-9.297-3.206-19.467-5.502c-10.169-2.295-16.432-3.475-19.313-2.356-2.881 1.118 10.613 4.252 13.5 5.775 1.38.728-2.938.02-8.172-.69-5.714-.774-12.521-1.547-14.198-.452-3.212 2.098 11.593 4.955 16.67 7.497 2.521 1.263-2.323.071-8.104-1.12-5.849-1.206-12.656-2.412-13.765-1.076-2.206 2.657 13.452 6.043 20.32 8.266 3.247 1.05-.792.282-6.265-.487-6.104-.858-13.993-1.715-15.55-.05-2.956 3.158 15.202 3.889 37.178 12.751 7.807 3.15-5.576 2.065-10.713 3.445s-14.336 8.77-3.033 7.332c11.303-1.438 13.336-1.334 20.597-1.327 7.259.009 9.513-6.812 12.843-8.193 40.296-16.724 72.49-46.638 100.317-69.975 24.072-20.19 38.637-37.755 38.637-37.755 3.421 27.043 76.673 61.129 219.755 102.257 0 0-15.333-61.598-13.098-79.142 2.65-20.803 16.347-46.62 16.347-46.62 64.282 21.572 130.145 27.358 138.69 20.422 8.545-6.934.728-48.541-17.046-88.472C505.481 122 452.217 68.745 452.217 68.745l-3.736 1.831c3.736-1.831 9.6-12.821 11.156-15.356 1.556-2.535 12.192-17.046 8.61-16.03-3.584 1.015-13.327 11.144-11.596 8.504 1.728-2.642 9.595-17.918 6.302-15.556-3.293 2.362-13.179 15.245-12.265 12.802.913-2.442 8.958-19.358 5.524-16.923-3.495 2.479-12.373 16.622-11.333 14.056 1.04-2.567 4.64-17.103 2.452-16.053-2.188 1.052-6.6 11.751-7.604 14.23-1.004 2.477-6.16 10.826-8.787 6.358-1.278-2.172-9.717-6.392-11.456-4.143-1.74 2.249 2.221 1.582 4.104 4.331 1.882 2.75.23 2.881 1.104 8.61.875 5.73 4.247 7.088 3.823 10.105-1.595 11.372 21.514 110.29 21.514 110.29s-49.797-60.74-59.088-63.313c-9.294-2.574-73.005-12.637-75.684-13.527-2.68-.891-18.058-48.656-14.933-46.207 3.126 2.448 6.003 5.694 8.905 4.581 2.666-1.023 3.596-12.74.616-25.167-.399-1.752 5.545-3.679 3.245-5.208-3.254-2.163-7.976-8.991-11.43-14.264l-.01-.014c-2.55-4.476-5.416-8.944-8.44-12.556-.071-.085-.132-.126-.183-.126-.645 0 .076 6.395-2.68 12.226-2.143 4.53-10.823 5.533-10.823 8.14z" id="k"/>
    </defs>
    <g fill="none" fill-rule="evenodd">
        <g transform="scale(1 -1) rotate(-72 -75.179 -55.255)">
            <mask id="b" fill="#fff">
                <use xlink:href="#a"/>
            </mask>
            <g mask="url(#b)">
                <g transform="translate(79.837 14.92)">
                    <path d="M167.667 59.617c0 7.163-5.816 12.97-12.99 12.97-7.175 0-12.991-5.807-12.991-12.97 0-7.162 5.816-12.969 12.99-12.969 7.175 0 12.991 5.807 12.991 12.97M68.686 24.271c0 9.016-7.32 16.324-16.35 16.324-9.031 0-16.352-7.308-16.352-16.324 0-9.015 7.32-16.324 16.351-16.324 9.03 0 16.351 7.309 16.351 16.324M45.895 44.288v11.92l13.993-11.92zM111.244 24.271l22.515-9.295-3.263 24.433z" fill="#FFCFDF"/>
                    <mask id="d" fill="#fff">
                        <use xlink:href="#c"/>
                    </mask>
                    <path fill="#FFCFDF" mask="url(#d)" d="M86.607 33.708h9.453v-9.437h-9.453zM137.349 61.888v30.296h-14.847zM106.838 70.032v7.818h7.995zM110.836 118.41l7.097 9.121 6.2-9.122zM90.196 119.387l9.137 9.121-5.384 5.376zM66.702 142.354l20.596-32.252H44.512zM8.128 91.207h36.384L24.77 63.517zM8.128 66.448h10.257v-10.24H8.128z"/>
                    <path fill="#FE89B3" mask="url(#d)" d="M77.115 20.647H96.06V1.733H77.115zM149.71 30.05c0 3.974-3.226 7.195-7.206 7.195-3.98 0-7.207-3.221-7.207-7.195 0-3.973 3.227-7.195 7.207-7.195s7.206 3.222 7.206 7.195"/>
                    <path fill="#7F8CA8" mask="url(#d)" d="M97.214 44.288h45.29L119.859 75.66zM105.677 127.53 88.751 158.3l38.314-2.64zM168.972 106.636l-28.022-3.939 3.946-27.975 28.022 3.94z"/>
                    <path d="M156.056 126.363a4.567 4.567 0 0 1-4.57 4.564 4.567 4.567 0 0 1-4.571-4.564 4.567 4.567 0 0 1 4.57-4.563 4.567 4.567 0 0 1 4.571 4.563" fill="#FFCFDF" mask="url(#d)"/>
                    <path fill="#FE89B3" mask="url(#d)" d="m33.29 146.47 21.439 10.549-2.394-24.894zM9.014 112.497l5.594 7.979 13.587-9.415z"/>
                    <path fill="#7F8CA8" mask="url(#d)" d="M42.9 78.667V43.24H20.204z"/>
                    <path d="M12.975 75.895a4.435 4.435 0 0 1-4.439 4.431 4.435 4.435 0 0 1-4.439-4.431 4.435 4.435 0 0 1 4.439-4.432 4.435 4.435 0 0 1 4.439 4.432" fill="#FE89B3" mask="url(#d)"/>
                    <path fill="#7F8CA8" mask="url(#d)" d="M47.939 106.162h42.997V63.236H47.94z"/>
                    <path d="M67.996 150.077a5.51 5.51 0 0 1-5.515 5.506 5.51 5.51 0 0 1-5.514-5.506 5.51 5.51 0 0 1 5.514-5.505 5.51 5.51 0 0 1 5.515 5.505M93.182 114.155h21.361v-7.506H93.182z" fill="#FE89B3" mask="url(#d)"/>
                    <path fill="#FE89B3" mask="url(#d)" d="M100.104 121.065h7.518V99.738h-7.518z"/>
                    <path fill="#FD065F" mask="url(#d)" d="M132.173 111.708v-14.59H117.56v-14.59h-14.613v-14.59H96.06v21.465h14.613V103.992h14.614v14.59h21.5v-6.874z"/>
                    <path d="M146.23 136.134c0 7.27-5.903 13.164-13.185 13.164-7.283 0-13.186-5.894-13.186-13.164s5.903-13.164 13.186-13.164c7.282 0 13.186 5.894 13.186 13.164" fill="#CC0A4D" mask="url(#d)"/>
                    <path fill="#FD065F" mask="url(#d)" d="m151.486 109.13 7.127 13.84 7.655-12.868zM171.787 65.187l-7.477 6.276 8.987 4.198zM162.555 45.747l-12.997-1.568 7.2-11.108zM121.423 6.936l-9.096 6.576 9.096 3.405zM119.616 36.71a3.642 3.642 0 0 1-3.645 3.64 3.642 3.642 0 0 1-3.645-3.64 3.642 3.642 0 0 1 3.645-3.639 3.642 3.642 0 0 1 3.645 3.64M73.42 7.638a4.036 4.036 0 0 1-4.038 4.032 4.036 4.036 0 0 1-4.04-4.032 4.036 4.036 0 0 1 4.04-4.033c2.23 0 4.039 1.805 4.039 4.033M55.892 57.056 76.01 26.13l21.205 30.925zM35.192 33.613c0 3.666-2.978 6.639-6.65 6.639-3.674 0-6.65-2.973-6.65-6.64 0-3.666 2.976-6.638 6.65-6.638 3.672 0 6.65 2.972 6.65 6.639M13.532 41.904l-4.14 8.345h9.212z"/>
                    <path fill="#CC0A4D" mask="url(#d)" d="m37.209 141.212-19.87 17.31L0 138.685l19.87-17.31z"/>
                    <path fill="#FD065F" mask="url(#d)" d="m110.876 8.138.004-.003L102.732 0l-2.572 2.567 5.58 5.571-5.58 5.571.024.024-.024.024 5.58 5.571-5.58 5.571.024.025-.024.023 5.58 5.572-5.58 5.57 2.572 2.568 8.148-8.135-.004-.003.004-.004-5.601-5.591 5.601-5.592-.004-.004.004-.003-5.601-5.592 5.601-5.591zM91.358 141.94h.005l-3.332-11.013-3.481 1.05 2.282 7.542-7.555 2.278.01.032-.033.01 2.283 7.542-7.555 2.279.01.032-.033.01 2.282 7.542-7.555 2.278 1.052 3.476 11.031-3.327-.001-.005.004-.001-2.29-7.57 7.582-2.287-.001-.005.005-.001-2.29-7.57 7.582-2.287zM12.749 96.544l-.004-.004-7.239 8.951 2.83 2.281 4.957-6.13 6.14 4.95.022-.027.026.02 4.958-6.13 6.14 4.95.022-.026.026.02 4.958-6.13 6.14 4.95 2.284-2.825-8.966-7.227-.003.004-.004-.003-4.975 6.153-6.163-4.967-.003.003-.004-.003-4.976 6.153-6.163-4.967z"/>
                </g>
            </g>
            <g mask="url(#b)">
                <path d="M197.851 235.948c0 7.163-5.816 12.97-12.991 12.97s-12.99-5.807-12.99-12.97 5.815-12.97 12.99-12.97 12.991 5.807 12.991 12.97M221.989 186.485c0 7.162-5.817 12.969-12.991 12.969-7.175 0-12.991-5.807-12.991-12.97 0-7.162 5.816-12.969 12.99-12.969 7.175 0 12.992 5.807 12.992 12.97M98.87 200.602c0 9.015-7.32 16.324-16.351 16.324-9.03 0-16.351-7.309-16.351-16.324 0-9.016 7.32-16.324 16.35-16.324 9.031 0 16.352 7.308 16.352 16.324M76.079 220.619v11.92l13.993-11.92zM141.427 200.602l22.516-9.295-3.263 24.433zM116.79 210.039h9.453v-9.437h-9.453zM167.533 238.218v30.297h-14.848zM137.022 246.363v7.818h7.995zM141.02 294.74l7.097 9.122 6.2-9.122zM120.38 295.717l9.137 9.122-5.385 5.375zM96.885 318.684l20.596-32.251H74.696zM38.312 267.538h36.384l-19.742-27.69zM38.312 242.78h10.256v-10.24H38.312z" fill="#FFCFDF"/>
                <path fill="#FE89B3" d="M107.298 196.978h18.945v-18.914h-18.945zM179.894 206.38c0 3.974-3.227 7.195-7.207 7.195s-7.206-3.22-7.206-7.194c0-3.974 3.226-7.195 7.206-7.195 3.98 0 7.207 3.221 7.207 7.195"/>
                <path fill="#7F8CA8" d="M127.398 220.619h45.29l-22.645 31.372zM135.86 303.862l-16.925 30.77 38.313-2.64zM199.155 282.967l-28.02-3.94 3.945-27.974 28.021 3.94z"/>
                <path d="M186.24 302.694a4.567 4.567 0 0 1-4.57 4.563 4.567 4.567 0 0 1-4.571-4.563 4.567 4.567 0 0 1 4.57-4.563 4.567 4.567 0 0 1 4.571 4.563M203.275 209.985a4.567 4.567 0 0 1-4.571 4.564 4.567 4.567 0 0 1-4.57-4.564 4.567 4.567 0 0 1 4.57-4.563 4.567 4.567 0 0 1 4.57 4.563" fill="#FFCFDF"/>
                <path fill="#FE89B3" d="m63.474 322.801 21.438 10.548-2.393-24.894zM39.198 288.828l5.594 7.978 13.587-9.415zM73.084 254.997v-35.426H50.386zM43.159 252.225a4.435 4.435 0 0 1-4.44 4.432 4.435 4.435 0 0 1-4.438-4.432 4.435 4.435 0 0 1 4.439-4.431 4.435 4.435 0 0 1 4.439 4.431"/>
                <path fill="#7F8CA8" d="M78.122 282.492h42.998v-42.926H78.122z"/>
                <path d="M98.18 326.408a5.51 5.51 0 0 1-5.515 5.505 5.51 5.51 0 0 1-5.515-5.505 5.51 5.51 0 0 1 5.515-5.506 5.51 5.51 0 0 1 5.514 5.506M123.365 290.485h21.362v-7.505h-21.362z" fill="#FE89B3"/>
                <path fill="#FE89B3" d="M130.287 297.395h7.518V276.07h-7.518zM183.828 202.35h7.518v-21.327h-7.518z"/>
                <path fill="#CC0A4D" d="M162.357 288.038V273.45h-14.614v-14.59H133.13v-14.59h-6.886v21.465h14.614V280.323h14.614v14.59h21.5v-6.875zM176.414 312.465c0 7.27-5.903 13.163-13.186 13.163-7.282 0-13.185-5.893-13.185-13.163 0-7.27 5.903-13.164 13.185-13.164 7.283 0 13.186 5.894 13.186 13.164M181.67 285.462l7.127 13.839 7.655-12.868z"/>
                <path fill="#FD065F" d="m201.97 241.518-7.476 6.276 8.987 4.197zM192.739 222.078l-12.998-1.568 7.2-11.108z"/>
                <path fill="#CC0A4D" d="m177.151 189.945-12.997-1.568 7.2-11.108z"/>
                <path fill="#FD065F" d="m151.607 183.267-9.097 6.576 9.097 3.405zM149.8 213.04a3.642 3.642 0 0 1-3.645 3.64 3.642 3.642 0 0 1-3.645-3.64 3.642 3.642 0 0 1 3.645-3.638 3.642 3.642 0 0 1 3.645 3.639M103.604 183.968a4.036 4.036 0 0 1-4.039 4.033 4.036 4.036 0 0 1-4.04-4.033 4.036 4.036 0 0 1 4.04-4.032c2.231 0 4.04 1.805 4.04 4.032"/>
                <path fill="#CC0A4D" d="m86.076 233.386 20.117-30.924 21.205 30.924z"/>
                <path d="M65.375 209.943c0 3.667-2.977 6.64-6.65 6.64-3.673 0-6.65-2.973-6.65-6.64 0-3.666 2.977-6.639 6.65-6.639 3.673 0 6.65 2.973 6.65 6.64M43.715 218.234l-4.139 8.345h9.212zM67.393 317.543l-19.87 17.31-17.34-19.837 19.87-17.31zM141.06 184.469l.004-.004-8.149-8.134-2.57 2.567 5.58 5.57-5.58 5.572.023.024-.024.024 5.58 5.571-5.58 5.571.024.024-.024.024 5.58 5.571-5.58 5.571 2.571 2.567 8.149-8.134-.004-.004.004-.003-5.601-5.592 5.6-5.591-.003-.004.004-.003-5.601-5.592 5.6-5.591zM121.542 318.271l.005-.001-3.332-11.013-3.481 1.05 2.282 7.542-7.555 2.279.01.032-.033.01 2.282 7.542-7.555 2.278.01.033-.032.01 2.282 7.542-7.555 2.278 1.052 3.475 11.03-3.326v-.005l.004-.002-2.29-7.57 7.582-2.286-.002-.005.005-.001-2.29-7.57 7.582-2.287zM42.933 272.874l-.004-.003-7.239 8.951 2.83 2.28 4.957-6.13 6.14 4.95.021-.027.027.021 4.957-6.13 6.14 4.95.022-.027.027.022 4.957-6.13 6.14 4.949 2.285-2.825-8.966-7.227-.003.004-.004-.003-4.976 6.153-6.163-4.968-.003.004-.004-.003-4.975 6.153-6.163-4.968z" fill="#FD065F"/>
            </g>
        </g>
        <path d="M319.667 388.53c6.665-14.253-4.931-15.339 6.665-43.728 9.592-23.483 40.806-47.246 63.624-38.376 22.818 8.87 23.95-14.734 32.298-32.475 5.57-11.836 19.924-33.441 46.141-29.49 24.384 3.676 24.395-44.97 62.198-48.302 30.908-2.725 92.624 29.96 118.688 74.57 26.34 45.084 25.46 103.333 6.056 124.41-18.768 20.383-54.366-12.734-64.092 15.238-11.521 33.135-30.225 45.248-66.82 25.911-42.185-22.291-19.707 26.288-64.017 17.46-26.474-5.275-45.268-22.688-59.46-12.676-11.413 8.051-37.861-1.869-42.92-15.84l-17.605 1.797 4.27-11.875s-35.669-3.87-25.026-26.625" fill="#242E3E"/>
        <path d="M319.667 388.53c6.665-14.253-4.931-15.339 6.665-43.728 9.592-23.483 40.806-47.246 63.624-38.376 22.818 8.87 23.95-14.734 32.298-32.475 5.57-11.836 19.924-33.441 46.141-29.49 24.384 3.676 24.395-44.97 62.198-48.302 30.908-2.725 92.624 29.96 118.688 74.57 26.34 45.084 25.46 103.333 6.056 124.41-18.768 20.383-54.366-12.734-64.092 15.238-11.521 33.135-30.225 45.248-66.82 25.911-42.185-22.291-19.707 26.288-64.017 17.46-26.474-5.275-45.268-22.688-59.46-12.676-11.413 8.051-37.861-1.869-42.92-15.84l-17.605 1.797 4.27-11.875s-35.669-3.87-25.026-26.625z" stroke="#242E3E" stroke-width="1.377"/>
        <path stroke="#FD065F" stroke-width="1.377" stroke-linecap="round" stroke-linejoin="round" stroke-dasharray="8.26200005578994,16.52400011157988" d="m661.586 867-88.245-222.726"/>
        <path d="M552.309 760.003c2.193 27.062 34.795 46.509 72.819 43.432 38.023-3.074 67.068-27.506 64.875-54.57-2.193-27.063-34.795-46.508-72.818-43.433-38.024 3.076-67.07 27.508-64.876 54.571z" stroke="#FD065F" stroke-width="2.065" stroke-linecap="round" stroke-linejoin="round"/>
        <path d="M614.773 675.674c61.113-4.943 113.514 26.311 117.04 69.81 3.136 38.697-33.465 74.045-84.611 84.859l-5.383-13.338c42.446-8.701 72.916-37.923 70.322-69.93-2.9-35.765-45.984-61.464-96.234-57.4-8.29.671-16.258 2.11-23.77 4.206l-5.382-13.338c8.874-2.416 18.262-4.08 28.018-4.869z" stroke="#FFCFDF" stroke-width="2.065" stroke-linecap="round" stroke-linejoin="round"/>
        <path d="m592.137 693.882-5.383-13.338c8.876-2.417 18.263-4.08 28.02-4.87 61.113-4.943 113.514 26.311 117.04 69.81 1.097 13.555-2.686 26.699-10.257 38.521L703.87 778.5c6.12-9.657 9.167-20.374 8.271-31.425-2.898-35.765-45.983-61.464-96.233-57.399-8.29.67-16.257 2.109-23.77 4.206" fill="#FFCFDF"/>
        <path d="m592.137 693.882-5.383-13.338c8.876-2.417 18.263-4.08 28.02-4.87 61.113-4.943 113.514 26.311 117.04 69.81 1.097 13.555-2.686 26.699-10.257 38.521L703.87 778.5c6.12-9.657 9.167-20.374 8.271-31.425-2.898-35.765-45.983-61.464-96.233-57.399-8.29.67-16.257 2.109-23.77 4.206z" stroke="#FFCFDF" stroke-width="2.065" stroke-linecap="round" stroke-linejoin="round"/>
        <path d="M614.773 675.674c47.191-3.817 89.18 13.952 107.488 42.273l-18.941 5.041c-15.528-22.441-49.42-36.385-87.413-33.312-8.29.67-16.258 2.109-23.77 4.205l-5.382-13.338c8.874-2.416 18.262-4.08 28.018-4.869" fill="#FE89B3"/>
        <path d="M614.773 675.674c47.191-3.817 89.18 13.952 107.488 42.273l-18.941 5.041c-15.528-22.441-49.42-36.385-87.413-33.312-8.29.67-16.258 2.109-23.77 4.205l-5.382-13.338c8.874-2.416 18.262-4.08 28.018-4.869z" stroke="#FE89B3" stroke-width="2.065" stroke-linecap="round" stroke-linejoin="round"/>
        <path d="M614.773 675.674c47.191-3.817 89.18 13.952 107.488 42.273l-18.941 5.041c-15.528-22.441-49.42-36.385-87.413-33.312-8.29.67-16.258 2.109-23.77 4.205l-5.382-13.338c8.874-2.416 18.262-4.08 28.018-4.869" fill="#FE89B3"/>
        <path d="M614.773 675.674c47.191-3.817 89.18 13.952 107.488 42.273l-18.941 5.041c-15.528-22.441-49.42-36.385-87.413-33.312-8.29.67-16.258 2.109-23.77 4.205l-5.382-13.338c8.874-2.416 18.262-4.08 28.018-4.869z" stroke="#FE89B3" stroke-width="2.065" stroke-linecap="round" stroke-linejoin="round"/>
        <path d="m592.137 693.882-5.383-13.338c8.876-2.417 18.263-4.08 28.02-4.87 16.735-1.353 32.81.02 47.413 3.604l-9.104 12.922c-11.52-2.624-24.105-3.582-37.176-2.524-8.29.67-16.257 2.109-23.77 4.206" fill="#FD065F"/>
        <path d="m592.137 693.882-5.383-13.338c8.876-2.417 18.263-4.08 28.02-4.87 16.735-1.353 32.81.02 47.413 3.604l-9.104 12.922c-11.52-2.624-24.105-3.582-37.176-2.524-8.29.67-16.257 2.109-23.77 4.206z" stroke="#FD065F" stroke-width="2.065" stroke-linecap="round" stroke-linejoin="round"/>
        <path d="M107.836 569.987c35.277-79.41 88.49-132.717 88.49-132.717l3.734 1.833c-3.734-1.833-9.59-12.834-11.145-15.37-1.555-2.539-12.182-17.065-8.602-16.048 3.58 1.017 13.312 11.156 11.585 8.512-1.727-2.644-9.588-17.935-6.297-15.57 3.29 2.364 13.166 15.26 12.253 12.814-.912-2.445-8.948-19.376-5.519-16.939 3.491 2.48 12.362 16.639 11.323 14.07-1.04-2.57-4.636-17.12-2.45-16.07 2.186 1.053 6.595 11.764 7.598 14.244 1.003 2.48 6.153 10.838 8.778 6.365 1.276-2.175 9.708-6.398 11.445-4.147 1.739 2.252-2.22 1.584-4.1 4.335-1.88 2.753-.23 2.884-1.104 8.62-.873 5.735-4.241 7.094-3.819 10.113 1.595 11.383-21.493 110.4-21.493 110.4s49.75-60.8 59.033-63.376c9.284-2.576 72.936-12.649 75.612-13.54 2.677-.893 18.042-48.704 14.918-46.253-3.122 2.45-5.996 5.699-8.896 4.586-2.664-1.024-3.593-12.754-.614-25.192v-.003c.397-1.75-5.541-3.68-3.242-5.21 3.25-2.165 7.968-9 11.418-14.279l.01-.014c2.547-4.48 5.411-8.952 8.432-12.568.964-1.154-.113 5.81 2.861 12.111 2.14 4.535 10.813 5.54 10.813 8.15 0 6.238-3.137 8.484-1.352 10.49 1.785 2.004 3.568-4.012 5.13-6.686 1.56-2.674 8.03-8.467 8.03 1.337s-10.484 9.804-12.49 12.923c-2.008 3.12-7.363 57.686-1.836 61.118 5.527 3.431 33.667 3.094 65.828 18.656 32.16 15.562 61.305 95.883 77.888 97.892 16.583 2.007 36.693 31.592 48.464 59.03 22.66 52.821 34.99 102.028 34.99 102.028s9.288-3.21 19.448-5.507c10.16-2.298 16.417-3.478 19.295-2.358 2.879 1.12-10.603 4.255-13.488 5.78-2.884 1.524 19.14-3.245 22.35-1.143 3.209 2.101-11.584 4.96-16.654 7.504-5.07 2.544 19.643-4.857 21.847-2.198 2.205 2.66-13.44 6.05-20.301 8.275-6.86 2.224 18.843-3.7 21.796-.538 2.952 3.162-15.189 3.892-37.144 12.765-7.8 3.151 5.57 2.066 10.703 3.447 5.133 1.382 14.323 8.779 3.03 7.339-11.292-1.44-13.324-1.335-20.577-1.328-7.252.008-9.505-6.818-12.831-8.202-40.259-16.74-72.422-46.683-100.223-70.044-24.05-20.209-38.601-37.792-38.601-37.792-5.128 40.605 19.029 57.157 27.012 76.695 7.105 17.39 1.553 25.663 1.553 25.663H232.612s15.318-61.659 13.085-79.22c-2.647-20.824-16.331-46.667-16.331-46.667-64.223 21.595-130.022 27.385-138.56 20.444-8.538-6.942-.727-48.59 17.03-88.56"/>
        <g>
            <g transform="matrix(-1 0 0 1 648.647 370.544)">
                <mask id="f" fill="#fff">
                    <use xlink:href="#e"/>
                </mask>
                <path d="M284.15 124.33c-1.34-13.264 9.45-27.1 6.168-53.72-2.862-23.222-3.695-38.56-5.665-49.368-1.97-10.806-.74-31.683 12.316-22.104 13.055 9.578 23.402 26.28 26.111 41.507 2.71 15.228 3.695 63.368 7.39 80.806 3.695 17.438 11.085 49.614-2.71 52.806-13.794 3.192-40.665-20.768-43.61-49.927" fill="#FFCFDF" mask="url(#f)"/>
            </g>
            <g transform="matrix(-1 0 0 1 648.647 370.544)">
                <mask id="h" fill="#fff">
                    <use xlink:href="#g"/>
                </mask>
                <path d="M459.251 166.837c-3.73-8.833-22.101-96.017-22.101-101.025 0-5.008-.808-6.865-3.187-10.028-2.378-3.163-9.089-7.35-7.767-13.148S444.55 17.056 453.01 18.9c8.458 1.845 31.19 16.604 30.396 23.456-.793 6.853-16.387 27.146-12.952 31.626 3.437 4.48 47.578 66.94 47.578 66.94s-14.273 17.922-29.075 23.72c-14.802 5.798-29.705 2.194-29.705 2.194" fill="#FFCFDF" mask="url(#h)"/>
            </g>
            <path d="M562.99 684.563c7.54 20.67 19.36 52.892 26.999 73.398 3.026 8.125 9.686 15.453 13.383 16.375 4.858 1.212 19.433-1.75 26.182 2.422 5.576 3.448-6.115 10.886-15.926 11.17-20.191.582-106.318-61.489-113.955-71.64-7.636-10.153 54.408-56.154 63.318-31.725" fill="#FFCFDF"/>
            <g transform="matrix(-1 0 0 1 648.647 370.544)">
                <mask id="j" fill="#fff">
                    <use xlink:href="#i"/>
                </mask>
                <path d="M282.044 99.47c-1.49 24.703 28.037 65.116 39.89 65.879 11.854.763-2.429-57.095-6.677-66.388-4.248-9.293 77.033 8.437 77.033 8.437l33.411 24.418 16.652 24.046s63.16 12.595 64.883-28.054c0 0 51.677 92.623 57.993 136.197 6.316 43.573-106.8 192.427-106.8 192.427H131.144L147.15 344.52s-22.114 10.543-40.992 6.325c-19.947-4.457-36.613-24.531-32.549-57.785l31.773-95.254 103.274-88.05s70.751-27.165 73.387-10.286" fill="#FE89B3" mask="url(#j)"/>
            </g>
        </g>
        <g>
            <path d="M315.122 551.04c-.763 3.198.775 6.302 3.436 6.933 2.66.631 5.436-1.45 6.2-4.648.762-3.197-.776-6.302-3.436-6.932-2.661-.632-5.437 1.448-6.2 4.646" fill="#FE89B3"/>
            <path d="M315.122 551.04c-.763 3.198.775 6.302 3.436 6.933 2.66.631 5.436-1.45 6.2-4.648.762-3.197-.776-6.302-3.436-6.932-2.661-.632-5.437 1.448-6.2 4.646z" stroke="#242E3E" stroke-width="1.377"/>
            <path d="M307.478 579.056c-.764 3.198.774 6.302 3.435 6.934 2.661.63 5.437-1.45 6.2-4.648.763-3.198-.775-6.303-3.436-6.934-2.66-.631-5.436 1.45-6.2 4.648" fill="#FE89B3"/>
            <path d="M307.478 579.056c-.764 3.198.774 6.302 3.435 6.934 2.661.63 5.437-1.45 6.2-4.648.763-3.198-.775-6.303-3.436-6.934-2.66-.631-5.436 1.45-6.2 4.648z" stroke="#242E3E" stroke-width="1.377"/>
            <path d="M299.513 608.383c-.763 3.197.775 6.301 3.435 6.933 2.661.631 5.437-1.45 6.2-4.648.763-3.197-.775-6.302-3.436-6.933-2.66-.631-5.436 1.45-6.2 4.648" fill="#FE89B3"/>
            <g transform="matrix(-1 0 0 1 648.647 370.544)">
                <mask id="l" fill="#fff">
                    <use xlink:href="#k"/>
                </mask>
                <path d="M349.134 237.838c.763 3.198-.775 6.302-3.436 6.934-2.66.63-5.436-1.45-6.2-4.648-.763-3.197.775-6.302 3.436-6.933 2.661-.632 5.437 1.449 6.2 4.647z" stroke="#242E3E" stroke-width="1.377" mask="url(#l)"/>
            </g>
            <path d="M297.662 640.38c-.763 3.198.775 6.302 3.436 6.934 2.66.63 5.436-1.45 6.2-4.648.762-3.198-.776-6.303-3.436-6.933-2.661-.632-5.437 1.449-6.2 4.646" fill="#FE89B3"/>
            <path d="M297.662 640.38c-.763 3.198.775 6.302 3.436 6.934 2.66.63 5.436-1.45 6.2-4.648.762-3.198-.776-6.303-3.436-6.933-2.661-.632-5.437 1.449-6.2 4.646zM448.868 658.072c-10.09-10.479-17.851-42.113-31.807-47.139M226.937 632.351s-6.726-28.503 9.67-38.983" stroke="#242E3E" stroke-width="1.377"/>
        </g>
        <g>
            <path d="M107.503 570.307c35.287-79.486 88.515-132.845 88.515-132.845l3.735 1.836c-3.735-1.836-9.593-12.847-11.148-15.386-1.556-2.54-12.185-17.081-8.604-16.063 3.58 1.018 13.316 11.166 11.587 8.52-1.727-2.646-9.59-17.952-6.298-15.585 3.291 2.367 13.17 15.274 12.257 12.827-.913-2.448-8.952-19.395-5.52-16.956 3.491 2.483 12.365 16.655 11.325 14.083-1.04-2.572-4.637-17.137-2.45-16.084 2.186 1.053 6.596 11.775 7.6 14.257 1.003 2.482 6.154 10.848 8.78 6.371 1.276-2.177 9.71-6.404 11.448-4.15 1.74 2.253-2.22 1.584-4.1 4.338-1.882 2.756-.232 2.887-1.105 8.628-.874 5.741-4.243 7.101-3.82 10.124 1.595 11.394-21.5 110.505-21.5 110.505s49.764-60.858 59.05-63.437c9.287-2.578 72.956-12.66 75.633-13.553 2.678-.893 18.047-48.75 14.923-46.297-3.124 2.453-5.999 5.704-8.9 4.59-2.664-1.025-3.593-12.765-.614-25.215.398-1.756-5.542-3.687-3.243-5.22 3.251-2.166 7.971-9.008 11.422-14.29l.01-.015c2.547-4.484 5.413-8.96 8.435-12.58.963-1.156-.114 5.814 2.861 12.123 2.141 4.539 10.816 5.544 10.816 8.157 0 6.244-3.138 8.492-1.352 10.5 1.785 2.006 3.569-4.016 5.13-6.692 1.562-2.677 8.032-8.475 8.032 1.338 0 9.813-10.485 9.813-12.493 12.936-2.008 3.123-7.365 57.741-1.836 61.176 5.53 3.435 33.677 3.097 65.847 18.674 32.169 15.577 61.322 95.975 77.909 97.986 16.588 2.01 36.703 31.622 48.477 59.087 22.667 52.871 35 102.125 35 102.125s9.29-3.212 19.454-5.512c10.162-2.3 16.421-3.48 19.3-2.36 2.88 1.12-10.605 4.26-13.491 5.786-2.885 1.525 19.145-3.249 22.355-1.145 3.21 2.104-11.586 4.965-16.658 7.512-5.071 2.546 19.649-4.862 21.854-2.2 2.204 2.662-13.444 6.056-20.308 8.282-6.862 2.226 18.85-3.704 21.803-.538 2.952 3.165-15.193 3.896-37.155 12.777-7.801 3.154 5.573 2.068 10.706 3.45 5.134 1.383 14.327 8.788 3.031 7.346-11.295-1.44-13.328-1.336-20.583-1.329-7.254.009-9.507-6.825-12.834-8.21-40.27-16.756-72.443-46.728-100.25-70.11-24.057-20.23-38.613-37.83-38.613-37.83-5.13 40.645-58.04 102.458-58.04 102.458H232.315s15.32-61.719 13.088-79.297c-2.648-20.844-16.336-46.711-16.336-46.711-64.24 21.615-130.058 27.411-138.598 20.463-8.54-6.948-.727-48.636 17.034-88.645z" stroke="#242E3E" stroke-width="1.377"/>
            <path d="M373.202 391.974s-3.572-10.135-6.833-13.395c-3.26-3.26-26.654-1.73-29.228-.53-2.574 1.201-4.037 12.104-1.29 14.677 2.745 2.574 3.775-1.372 6.006-1.03 2.231.344 5.204 4.335 10.626 5.525 5.416 1.189 18.048-.892 18.048-.892l2.67-4.355z" fill="#7F8CA8"/>
            <path d="M373.202 391.974s-3.572-10.135-6.833-13.395c-3.26-3.26-26.654-1.73-29.228-.53-2.574 1.201-4.037 12.104-1.29 14.677 2.745 2.574 3.775-1.372 6.006-1.03 2.231.344 5.204 4.335 10.626 5.525 5.416 1.189 18.048-.892 18.048-.892l2.67-4.355z" stroke="#6D7994" stroke-width="1.377" stroke-linecap="round" stroke-linejoin="round"/>
            <path d="M365.312 381.487s1.454 7.272-9.126 13.222" stroke="#FFCFDF" stroke-width="1.377" stroke-linecap="round" stroke-linejoin="round"/>
        </g>
    </g>
</svg>
